<?xml version="1.0" encoding="utf-8"?>
<!-- Generator: Adobe Illustrator 24.2.3, SVG Export Plug-In . SVG Version: 6.00 Build 0)  -->
<svg version="1.1" id="Layer_1" xmlns="http://www.w3.org/2000/svg" xmlns:xlink="http://www.w3.org/1999/xlink" x="0px" y="0px"
	 viewBox="0 0 419.3 144.7" style="enable-background:new 0 0 419.3 144.7;" xml:space="preserve">
<style type="text/css">
	.st0{fill:#00467F;}
</style>
<g>
	<g>
		<g>
			<g>
				<path class="st0" d="M122.9,70.4c-4.8,0-8-0.5-11.8-1.9v-8.8c3.4,1.3,6.9,2.2,10.5,2.2c3.3,0,4.6-1,4.6-2.8
					c0-2.6-3.7-3.4-7.6-4.5c-4.2-1.2-8.5-3.6-8.5-10.5c0-7,4.2-11.8,14-11.8c3.8,0,6.5,0.5,9.5,1.4v8.5c-3.2-0.7-6.3-1.2-8.9-1.2
					c-4,0-4.7,1.1-4.7,2.5c0,2.3,3.1,2.8,6.6,3.8c4.4,1.2,9.4,3.4,9.4,11.1C136,65.8,131.1,70.4,122.9,70.4z"/>
				<path class="st0" d="M140.5,40.6c0,0,4.1-1.5,10.3-1.5c6.2,0,12.2,1.8,12.2,12.3v18.3h-6.5l-1.1-3.2h-0.3c0,0-2.5,3.9-7.7,3.9
					c-5.5,0-9.5-2.9-9.5-9.6c0-7.1,4.6-10,11.2-10c1.9,0,3.7,0.3,4.6,0.5v-0.9c0-1.8-0.9-3.6-5-3.6c-4.1,0-8.2,1.3-8.2,1.3V40.6z
					 M153.7,61.2V57c-0.7-0.1-1.7-0.3-2.6-0.3c-3.3,0-4.3,1.5-4.3,3.3c0,1.8,1.3,2.9,3.3,2.9C151.5,63,152.8,62.1,153.7,61.2z"/>
				<path class="st0" d="M176.5,69.7h-9.4v-30h6.5l1,3.4l0.1,0h0.3c2.4-2.6,5.2-3.9,8.3-3.9c6.2,0,10.2,3.9,10.2,11v19.5H184V51
					c0-2.7-1.1-3.8-3.6-3.8c-1.2,0-2.7,0.5-3.9,2.1V69.7z"/>
				<path class="st0" d="M233.4,42.2c-1.7-0.6-4.9-1.1-7.3-1.1c-5.9,0-7.3,2.3-7.3,10.1c0,8.2,1.6,10.5,7.4,10.5
					c2.3,0,5.4-0.5,7.3-1.3v8.3c-2.4,1.2-5.8,1.8-8.7,1.8c-11.2,0-16.8-6.3-16.8-19.3c0-12.1,5.4-18.9,17.4-18.9
					c2.6,0,5.9,0.4,7.9,1.2V42.2z"/>
				<path class="st0" d="M246.4,69.7H237v-30h6.5l1.3,5.2h0.5c1.4-3.8,3.6-5.8,6.2-5.8c1.2,0,2,0.2,2.6,0.5v8.1
					c-0.3-0.1-1.5-0.2-2.2-0.2c-2.8,0-4.4,1.2-5.6,4V69.7z"/>
				<path class="st0" d="M262,37.5c-3.5,0-5.1-1-5.1-3.9c0-2.5,1.6-3.9,5.1-3.9c3.6,0,5.1,1.4,5.1,3.9
					C267.1,36.2,265.6,37.5,262,37.5z M257.2,69.7v-30h9.6v30H257.2z"/>
				<path class="st0" d="M281.7,70.4c-3.9,0-7-0.5-9.7-1.3v-7.7c2.6,0.9,6.2,1.6,8.7,1.6c2.3,0,3.3-1,3.3-2.2c0-2.2-3.2-2.2-6.2-3.3
					c-3.3-1.2-6.9-2.6-6.9-8.4c0-5.9,3.6-10,11.3-10c3.1,0,6.1,0.4,8.7,1.2v7.3c-2.3-0.7-5.5-1.2-7.4-1.2c-2.5,0-3.5,0.9-3.5,2
					c0,1.9,2.5,1.9,5.3,2.7c3.5,1,7.5,2.4,7.5,8.7C292.7,66.1,289.5,70.4,281.7,70.4z"/>
				<path class="st0" d="M306.4,46.9V60c0,1.9,0.9,2.7,3.1,2.7c0.7,0,2.3-0.1,2.8-0.3v6.9c-1.1,0.5-3.3,0.9-5.7,0.9
					c-6.6,0-9.6-3.8-9.6-9.7V46.9h-2.8v-7.2h3.3l0.1-6l9-0.9v6.9h6.2v7.2H306.4z"/>
				<path class="st0" d="M328.3,70.4c-9.8,0-14.2-4.6-14.2-15.5s4.4-15.7,14.2-15.7c9.8,0,14.1,4.7,14.1,15.7S338.2,70.4,328.3,70.4
					z M328.3,63c3.2,0,4.4-1.6,4.4-8.2c0-6.7-1.1-8.2-4.4-8.2c-3.3,0-4.4,1.5-4.4,8.2C323.9,61.5,325.1,63,328.3,63z M336.6,30.8
					l-4.9,6.3h-7l2.2-6.3H336.6z"/>
				<path class="st0" d="M355.2,42c2-2.1,4.7-2.8,7.2-2.8c6.6,0,10.8,4.9,10.8,15.4c0,10.8-3.6,15.7-11.4,15.7
					c-3.3,0-6.4-1.5-8.2-3.8h-0.3l-1,3.2h-6.4V31.2l9.4-0.9v7.1c0,0.8-0.3,4.6-0.3,4.6H355.2z M359.2,47.2c-1.7,0-3.1,0.8-3.9,2.2
					v10.9c0.8,1.1,2.1,2.1,4,2.1c2.7,0,4.2-1.2,4.2-7.4C363.4,48.1,362,47.2,359.2,47.2z"/>
				<path class="st0" d="M377.9,40.6c0,0,4.1-1.5,10.3-1.5c6.2,0,12.2,1.8,12.2,12.3v18.3h-6.5l-1.1-3.2h-0.3c0,0-2.5,3.9-7.7,3.9
					c-5.5,0-9.5-2.9-9.5-9.6c0-7.1,4.7-10,11.2-10c1.9,0,3.7,0.3,4.6,0.5v-0.9c0-1.8-0.9-3.6-4.9-3.6c-4.1,0-8.2,1.3-8.2,1.3V40.6z
					 M391,61.2V57c-0.7-0.1-1.7-0.3-2.6-0.3c-3.3,0-4.3,1.5-4.3,3.3c0,1.8,1.3,2.9,3.3,2.9C388.9,63,390.2,62.1,391,61.2z"/>
				<path class="st0" d="M404.8,69.7V31.2l9.6-0.9v39.3H404.8z"/>
			</g>
			<g>
				<path class="st0" d="M319.5,97.9c0,1.7-0.5,3.1-1.5,4.1c-1,1-2.4,1.5-4.3,1.5c-1.2,0-2.1-0.1-3-0.3c-0.8-0.2-1.6-0.5-2.4-0.9
					v-2.4c0.8,0.5,1.5,0.8,2.3,1c0.8,0.2,1.7,0.3,2.6,0.3c1.2,0,2.1-0.3,2.7-0.8c0.6-0.5,0.9-1.3,0.9-2.3c0-0.7-0.2-1.3-0.7-1.7
					c-0.4-0.4-1-0.8-1.6-1c-0.7-0.3-1.4-0.5-2.1-0.7c-0.8-0.2-1.5-0.5-2.1-0.9c-0.7-0.4-1.2-0.9-1.6-1.5c-0.4-0.6-0.7-1.5-0.7-2.5
					c0-0.7,0.1-1.4,0.4-2c0.2-0.6,0.6-1.2,1.1-1.6c0.5-0.5,1.1-0.8,1.9-1.1c0.7-0.3,1.7-0.4,2.7-0.4c0.9,0,1.7,0.1,2.5,0.2
					c0.8,0.2,1.5,0.4,2.1,0.6v2.3c-0.7-0.3-1.5-0.5-2.2-0.6c-0.7-0.1-1.5-0.2-2.3-0.2c-0.6,0-1.2,0.1-1.6,0.2
					c-0.4,0.2-0.8,0.3-1.1,0.6c-0.3,0.3-0.5,0.5-0.6,0.9c-0.1,0.3-0.2,0.7-0.2,1c0,0.7,0.2,1.2,0.7,1.6c0.4,0.4,1,0.7,1.6,0.9
					c0.7,0.3,1.4,0.5,2.1,0.7c0.8,0.2,1.5,0.5,2.1,0.9c0.7,0.4,1.2,0.9,1.6,1.5C319.3,95.9,319.5,96.8,319.5,97.9z"/>
				<path class="st0" d="M322.9,84.8h10.3v2.3h-7.6v5.4h6.9v2.3h-6.9v6h7.6v2.3h-10.3V84.8z"/>
				<path class="st0" d="M350,102.4c-0.7,0.3-1.6,0.6-2.6,0.8c-1,0.2-2,0.3-3.1,0.3c-1.5,0-2.7-0.2-3.7-0.5c-1-0.4-1.9-0.9-2.6-1.7
					c-0.7-0.8-1.2-1.8-1.5-2.9c-0.3-1.2-0.5-2.6-0.5-4.2c0-3.3,0.7-5.7,2-7.2c1.4-1.5,3.5-2.3,6.5-2.3c0.9,0,1.9,0.1,2.8,0.2
					c0.9,0.2,1.8,0.4,2.5,0.6v2.3c-0.7-0.3-1.5-0.5-2.4-0.6c-0.9-0.1-1.8-0.2-2.7-0.2c-1.1,0-2,0.1-2.7,0.3
					c-0.8,0.2-1.4,0.6-1.9,1.2c-0.5,0.5-0.9,1.3-1.1,2.2c-0.2,0.9-0.3,2.1-0.3,3.5c0,1.4,0.1,2.5,0.3,3.4c0.2,0.9,0.5,1.6,1,2.2
					c0.4,0.6,1,1,1.7,1.2c0.7,0.2,1.5,0.4,2.6,0.4c0.6,0,1.2,0,1.7-0.1c0.5-0.1,1-0.1,1.4-0.2v-5.5h-3.6v-2.1h6.3L350,102.4z"/>
				<path class="st0" d="M367.6,96.5c0,2.4-0.6,4.2-1.8,5.3c-1.2,1.1-2.9,1.7-5.2,1.7c-2.2,0-3.9-0.6-5.1-1.7
					c-1.2-1.1-1.8-2.9-1.8-5.3V84.8h2.6v11.8c0,1.6,0.4,2.8,1.1,3.5c0.7,0.7,1.8,1.1,3.3,1.1c1.5,0,2.6-0.4,3.3-1.1
					c0.7-0.7,1-1.9,1-3.5V84.8h2.6V96.5z"/>
				<path class="st0" d="M383.8,90c0,1.3-0.3,2.5-0.9,3.3c-0.6,0.9-1.5,1.5-2.7,1.8l4.8,8h-3.1l-4.3-7.6h-3.4v7.6h-2.6V84.8h6.4
					c2,0,3.5,0.4,4.5,1.3C383.3,87,383.8,88.3,383.8,90z M381.1,90.1c0-1.1-0.3-1.9-0.8-2.3c-0.5-0.5-1.4-0.7-2.5-0.7h-3.7v6.2h3.6
					c1.2,0,2-0.2,2.6-0.7C380.9,92.1,381.1,91.3,381.1,90.1z"/>
				<path class="st0" d="M402.1,93.9c0,1.7-0.1,3.1-0.4,4.3c-0.3,1.2-0.7,2.2-1.3,3c-0.6,0.8-1.4,1.3-2.3,1.7
					c-1,0.4-2.1,0.5-3.5,0.5c-1.3,0-2.5-0.2-3.5-0.5c-1-0.4-1.7-0.9-2.4-1.7c-0.6-0.8-1.1-1.8-1.3-3c-0.3-1.2-0.4-2.6-0.4-4.3
					s0.1-3.1,0.4-4.3c0.3-1.2,0.7-2.2,1.3-2.9c0.6-0.8,1.4-1.3,2.3-1.7c1-0.4,2.1-0.5,3.5-0.5c1.4,0,2.5,0.2,3.5,0.5
					c1,0.4,1.7,0.9,2.3,1.7c0.6,0.8,1,1.7,1.3,2.9C401.9,90.8,402.1,92.3,402.1,93.9z M399.5,93.9c0-1.4-0.1-2.6-0.3-3.5
					c-0.2-0.9-0.5-1.6-0.9-2.2c-0.4-0.5-0.9-0.9-1.5-1.1c-0.6-0.2-1.4-0.3-2.3-0.3c-0.9,0-1.7,0.1-2.3,0.3c-0.6,0.2-1.1,0.6-1.5,1.1
					c-0.4,0.5-0.7,1.3-0.9,2.2c-0.2,0.9-0.3,2.1-0.3,3.5c0,1.4,0.1,2.6,0.3,3.5c0.2,0.9,0.5,1.7,0.9,2.2c0.4,0.5,0.9,0.9,1.5,1.2
					c0.6,0.2,1.4,0.3,2.3,0.3c0.9,0,1.7-0.1,2.3-0.3c0.6-0.2,1.1-0.6,1.5-1.2c0.4-0.6,0.7-1.3,0.9-2.2
					C399.4,96.5,399.5,95.3,399.5,93.9z"/>
				<path class="st0" d="M416.2,97.9c0,1.7-0.5,3.1-1.5,4.1c-1,1-2.4,1.5-4.3,1.5c-1.1,0-2.2-0.1-3-0.3c-0.8-0.2-1.7-0.5-2.4-0.9
					v-2.4c0.8,0.5,1.5,0.8,2.4,1c0.8,0.2,1.7,0.3,2.6,0.3c1.2,0,2.1-0.3,2.7-0.8c0.6-0.5,0.9-1.3,0.9-2.3c0-0.7-0.2-1.3-0.7-1.7
					c-0.4-0.4-1-0.8-1.6-1c-0.7-0.3-1.4-0.5-2.1-0.7c-0.8-0.2-1.5-0.5-2.1-0.9c-0.7-0.4-1.2-0.9-1.6-1.5c-0.4-0.6-0.7-1.5-0.7-2.5
					c0-0.7,0.1-1.4,0.4-2c0.2-0.6,0.6-1.2,1.1-1.6c0.5-0.5,1.1-0.8,1.9-1.1c0.8-0.3,1.7-0.4,2.7-0.4c0.9,0,1.7,0.1,2.5,0.2
					c0.8,0.2,1.5,0.4,2.1,0.6v2.3c-0.7-0.3-1.5-0.5-2.2-0.6c-0.7-0.1-1.5-0.2-2.3-0.2c-0.7,0-1.2,0.1-1.6,0.2
					c-0.4,0.2-0.8,0.3-1.1,0.6c-0.3,0.3-0.5,0.5-0.6,0.9c-0.1,0.3-0.2,0.7-0.2,1c0,0.7,0.2,1.2,0.7,1.6c0.4,0.4,1,0.7,1.6,0.9
					c0.7,0.3,1.4,0.5,2.1,0.7c0.8,0.2,1.5,0.5,2.1,0.9c0.7,0.4,1.2,0.9,1.6,1.5C416,95.9,416.2,96.8,416.2,97.9z"/>
			</g>
		</g>
	</g>
	<g>
		<path class="st0" d="M56.7,142.3L6,27.1l30.3-0.1c1.3-10,9.9-17.8,20.2-17.9C66.8,9.2,75.4,17,76.7,27L107,27l-3.1,7L56.7,142.3z
			 M12.8,31.6l0.8,1.7l43.1,97.9l43.5-99.8l-27.7,0l0-2.2c-0.2-8.6-7.3-15.6-15.9-15.6c-8.7,0-15.8,7-15.9,15.7l0,2.2L12.8,31.6z"/>
		<g>
			<path class="st0" d="M87.5,36.1L77.3,59.4c0,0,1-3.1,1.2-5.1c0.6-5.4-1.6-7.7-1.6-7.7c0-0.1,0-0.2,0-0.2c0-0.1,0-0.4,0-0.6h0
				c0-0.6-0.1-1.2-0.2-1.7h0c0-0.2-0.1-0.4-0.1-0.6c-1.1-3.7-4.8-4-4.8-4c-1.3-0.2-1.6-0.9-3.2-1.1c-2.4-0.2-5.1,1.1-5.1,1.1
				s-2.1,1.2-2.5-1.2c-0.3-1.8,2.2-2.6,2.2-2.6c0.1-0.1,1.9-0.6,1.2-2.3c0.7-0.9,2.5-3.4,0.9-5c-1.6-1.6-2.3-3.5-4.3-4.1
				c-2.3-0.7-3.1-0.1-3.1-0.1c-3.1-2.7-4.9,0-4.9,0c-2.6,0.3-1.5,3.9-1.5,3.9c-2.5,1.7-0.6,3.9-0.7,4.4c0,0.5-0.8,1.1-1.4,2.1
				c-0.5,1,0.7,2.2,0.7,2.2s0.7,0.8-1.1,0.3c-1.8-0.5-3.5-2-7.8,0.7c-5.5,3.5-10.3,3.1-10.3,3.1s-3.6-2.9-5.9-3.7
				c-2.3-0.8-3.7,0.1-4.1,1.7c-0.2,0.9,0.2,2.5,1.7,2.6c0,0-0.5,0.3-0.6,1.1c-0.3,1.6,3,3.8,7.6,3.8c6.8,3.2,11.8,0.3,11.8,0.3
				s-8.3,5.9-2.9,16.4l-4.8,2.5l6.5,14.6c0,0,5-0.4,6.1-2.8c0,0-3-6.5-1.6-9.3c0,0,1,0.6,3.1,1.1c2.3,0.5,4.8,0.6,7.6-1
				c0.9-0.5,1.4-1.3,1.4-0.2c0,1.1,2.3,5.3-2.2,11.2c-4.5,5.8-10,10.5-8.8,13.5l11.1,25.2l18.7-42.3c0,0-3.2,1.1-4.7-1.1
				c-1.4-2.1-0.9-5.3,2.2-7c0,0-1-4.2,0.8-3.7c0,0,0.7,0.6,1.5,1c0.7,0.4,3.3,2.9,5.3-1.6c1.5-3.5,8.2-19.8,11.2-27.1H87.5z
				 M55.3,54.1c-1.9,4-8-0.6-7.9,1c0.1,1.4,2.6,1.7,2.6,1.7c8.7,1.2,6.5,7.1,6.5,7.1c-3.5,7.5-12.9,0-12.9,0
				c-9.1-7.1,0.1-16.2,0.1-16.2c7.1-7.2-3.5-2.9-3.5-2.9c-3.6,1.3-5.9,1-8.1,0.5c-1.4-0.3-2.3-0.5-2.3-0.5l-0.2,0
				c-1.4,0.6-2.8-0.3-2.8-0.3c-0.4-0.4-2.3-1.1-2.3-1.1c-0.9-0.4-0.8-1-0.4-1.1c0.7-0.1,2.4,0.7,2.6,0.8c0.2,0.1,0.3-0.2,0.3-0.5
				c0-0.1,0-0.1,0-0.2c0-0.1-0.1-0.1-0.1-0.2c-0.7-1.4-3.4-2.2-3.4-2.2c-1.4-0.2-1.1-0.9-1.1-0.9c0.1-0.2,1.7,0.2,1.7,0.2
				c-0.8-0.3-0.8-1.1-0.8-1.1c0.5-0.5,4,1.8,4,1.8c0.2,0,0.9,0.1,1.1,0.4c0.2,0.3,2.1,2,2.1,2c6.5,0.6,10-2.1,13.7-3.7
				c3.3-1.4,5.8,1.1,7.5,1.2c1.8,0.1,2.9-0.2,2.9-0.2c-4.1-1.5-1.4-3.1-1.9-4c-0.4-0.9-1.4-0.9-0.3-1.8c1.2-0.9,0.6-1.5,0.6-1.5
				c-1.3-3.2,1-3.6,1-3.6c1.2,1.2,4.1,1.3,4.1,1.3c0.3,2.5,1.5,3.1,1.5,3.1c1.2-0.2,1.7-0.1,1.5,1.1c-0.2,1.2-2.2,1.7-2.2,1.7
				c-0.9,6.2,3,5.8,3,5.8C56.5,44,57,50.4,55.3,54.1z M68.7,56.5l-3,2c0,0-2.2-6.2,0.5-7.4c0,0.1,0,0.1,0,0.2c0,0.6,0.5,1,1,1
				c0.5,0,0.8-0.3,1-0.7c0.8,0.3,1.6,0.4,1.6-0.1c0.1-1-4.4-4.1-5.3-0.4l-1.8,3.5c0,0-3.9-0.6-4.7,0.2c0,0-0.2-3.5,1.7-4.8
				c0.3-0.2,0.5-0.3,0.5-0.6c0.2,0.3,0.5,0.6,0.9,0.6c0.4,0,0.7-0.2,0.9-0.5c0.9,0.3,1.9,0.5,2.3-0.2c0.5-1-3-1.3-3.1-2.5
				c0-1.2,5.3-1.6,7-4.1c0.1-0.1,0.5,0,0.5,0s2.2,0.5,3.1,1C71.7,43.5,74.7,53.9,68.7,56.5z"/>
			<path class="st0" d="M54.4,32.2C54.4,32.2,54.4,32.2,54.4,32.2c-0.3,0.1-0.5,0.3-0.5,0.6c0,0.3,0.3,0.6,0.6,0.6
				c0.3,0,0.5-0.2,0.5-0.4c0.1-0.1,0.2-0.2,0.6-0.1c0.5,0.2,0.6,0.1,0.7-0.2C56.4,32.3,55.2,32,54.4,32.2z"/>
		</g>
	</g>
</g>
</svg>
