<?xml version="1.0" encoding="utf-8"?>
<!-- Generator: Adobe Illustrator 16.0.0, SVG Export Plug-In . SVG Version: 6.00 Build 0)  -->
<!DOCTYPE svg PUBLIC "-//W3C//DTD SVG 1.1//EN" "http://www.w3.org/Graphics/SVG/1.1/DTD/svg11.dtd">
<svg version="1.1" id="Layer_1" xmlns="http://www.w3.org/2000/svg" xmlns:xlink="http://www.w3.org/1999/xlink" x="0px" y="0px"
	 width="220.036px" height="41.667px" viewBox="0 0 220.036 41.667" enable-background="new 0 0 220.036 41.667"
	 xml:space="preserve">
<g>
	<defs>
		<path id="SVGID_1_" d="M9.57,10.567c-5.42,5.419-5.42,14.204,0,19.628c5.419,5.422,14.21,5.422,19.628,0
			c5.422-5.425,5.422-14.209,0-19.628c-2.709-2.709-6.261-4.064-9.813-4.064C15.833,6.503,12.28,7.858,9.57,10.567"/>
	</defs>
	<clipPath id="SVGID_2_">
		<use xlink:href="#SVGID_1_"  overflow="visible"/>
	</clipPath>
	
		<linearGradient id="SVGID_3_" gradientUnits="userSpaceOnUse" x1="-147.7368" y1="494.0938" x2="-146.7368" y2="494.0938" gradientTransform="matrix(-20.2901 20.2901 20.2901 20.2901 -12993.0781 -7016.875)">
		<stop  offset="0" style="stop-color:#FFFFFF"/>
		<stop  offset="0.2966" style="stop-color:#FDFDFD"/>
		<stop  offset="0.4598" style="stop-color:#F5F5F5"/>
		<stop  offset="0.5906" style="stop-color:#E7E7E8"/>
		<stop  offset="0.7042" style="stop-color:#D3D4D5"/>
		<stop  offset="0.8066" style="stop-color:#BABBBC"/>
		<stop  offset="0.9011" style="stop-color:#9B9C9E"/>
		<stop  offset="0.9878" style="stop-color:#77797B"/>
		<stop  offset="1" style="stop-color:#717375"/>
	</linearGradient>
	<polygon clip-path="url(#SVGID_2_)" fill="url(#SVGID_3_)" points="49.177,21.061 19.385,50.853 -10.406,21.061 19.385,-8.731 	"/>
</g>
<path d="M9.102,11.5c0,0,0.082,2.019,0.471,2.485c0,0,0.7,1.478-0.076,3.19c0,0,0.156,1.241-1.01,1.551c0,0-1.014,1.095-0.779,1.712
	c0,0,0.151,0.62-0.547,0.543c0,0,0.234,2.792-1.242,2.716C5.918,23.697,4.201,15.924,9.102,11.5"/>
<path d="M9.496,19.506c0,0,1.004-1.47,0.776,0.387c0,0-0.549,1.01-0.392,1.475c0,0-0.857,0.543-0.857,1.4
	c0,0-0.693,0.623-0.771-0.388c0,0,0.158-1.401,0.541-1.401C8.793,20.98,9.416,20.98,9.496,19.506"/>
<path d="M7.783,27.745c0,0,1.011-0.624,1.4,0.386c0,0,0.54,1.166,1.316,1.403c0,0,1.478,0,0.316,1.707
	C10.816,31.241,8.33,29.14,7.783,27.745"/>
<path d="M14.699,7.458c0,0-1.32,2.647-0.621,3.807c0,0,1.244,1.245,2.487-0.389c0,0,0.774,0.157,0.698,1.712
	c0,0,0,2.019,0.701,1.939c0,0,1.008,0.08,0.775-1.163c0,0,1.014,3.032,2.258,3.42c0,0,2.404,0.39,0.461,1.56
	c0,0-3.418,2.79-0.383,5.744c0,0,0.776,0.698,0.233,1.712c0,0,0.231,5.203-0.704,6.218c0,0,0.236,1.079,0.854-0.233
	c0,0,1.629-1.17,1.397-2.252c0,0,1.167,0.149,1.327-0.705c0.152-0.855-0.234-0.074-0.234-0.074s1.627-2.358,2.312-2.236
	c0.059,0.008-0.057,0.057-0.057,0.057s2.404-1.627,1.24-4.039c0,0-3.262-4.821-4.431-3.81c0,0-0.076-1.705-0.388-2.258
	c0,0-1.715-0.543-0.467-1.395c0,0,0.854-0.545,1.242,0.701c0,0,0.855-0.08-0.154-1.863c0,0,0.701,0.151,1.705-0.93
	c0,0,2.492,0.615,2.031-2.027c0,0-0.087-2.097-1.248-1.786c0,0,0.6,1.579-1.34,1.606c-0.634,0.012,0,0,0,0s-2.002-0.748-0.682-2.464
	c0,0,0.65-0.549-1.32-1.313c-0.8-0.315-0.697-0.274-0.697-0.274S19.289,5.985,14.699,7.458"/>
<path fill="#0054A0" d="M24.119,20.379c0,7.677,6.246,13.917,13.916,13.917c7.682,0,13.922-6.24,13.922-13.917
	c0-7.673-6.24-13.915-13.922-13.915C30.365,6.464,24.119,12.706,24.119,20.379 M25.518,20.379c0-6.899,5.62-12.519,12.518-12.519
	c6.902,0,12.516,5.62,12.516,12.519c0,6.901-5.613,12.52-12.516,12.52C31.138,32.899,25.518,27.28,25.518,20.379"/>
<path fill="#0054A0" d="M25.91,20.379c0,6.69,5.437,12.128,12.125,12.128c6.686,0,12.125-5.438,12.125-12.128
	c0-6.686-5.439-12.126-12.125-12.126C31.347,8.253,25.91,13.693,25.91,20.379 M26.372,20.379c0-6.432,5.237-11.658,11.663-11.658
	c6.429,0,11.666,5.226,11.666,11.658s-5.237,11.664-11.666,11.664C31.609,32.044,26.372,26.811,26.372,20.379"/>
<path fill="#0054A0" d="M37.045,30.226L30.049,16.82c0,0-1.514-2.91,1.689-2.91l11.773,0.058c0,0,3.558-0.528,1.807,2.741
	l-1.686,3.493c0,0-0.062,0.415-0.82,0.47h-2.625l-0.057,5.537l-2.507,4.076V19.387c0,0-0.233-1.335,1.458-1.282h2.854l0.588-1.572
	l-9.793-0.066l0.697,1.638l3.387,0.058c0,0,1.334,0.112,0.169,1.343l-1.981,1.274l2.096,3.965L37.045,30.226z"/>
<path fill="#0054A0" d="M152.684,23.892l0.061,2.522h-0.229c-0.107-0.633-0.373-1.142-0.795-1.526s-0.879-0.578-1.369-0.578
	c-0.381,0-0.68,0.102-0.902,0.305c-0.221,0.203-0.332,0.436-0.332,0.699c0,0.168,0.038,0.317,0.118,0.447
	c0.106,0.174,0.282,0.348,0.518,0.518c0.174,0.123,0.578,0.342,1.211,0.654c0.885,0.435,1.482,0.846,1.789,1.231
	c0.307,0.388,0.459,0.83,0.459,1.329c0,0.632-0.246,1.175-0.738,1.631c-0.494,0.456-1.119,0.684-1.879,0.684
	c-0.236,0-0.463-0.024-0.676-0.072c-0.211-0.049-0.477-0.139-0.796-0.273c-0.179-0.074-0.326-0.111-0.44-0.111
	c-0.098,0-0.199,0.037-0.307,0.111c-0.109,0.074-0.195,0.188-0.264,0.34h-0.205v-2.855h0.205c0.164,0.803,0.479,1.416,0.947,1.838
	c0.465,0.422,0.969,0.633,1.508,0.633c0.416,0,0.75-0.113,0.996-0.34c0.248-0.227,0.371-0.491,0.371-0.792
	c0-0.179-0.049-0.353-0.143-0.519c-0.096-0.168-0.24-0.328-0.432-0.478c-0.193-0.151-0.535-0.347-1.027-0.589
	c-0.688-0.338-1.182-0.627-1.483-0.864c-0.302-0.237-0.533-0.504-0.695-0.798s-0.243-0.617-0.243-0.971
	c0-0.603,0.221-1.116,0.664-1.541c0.442-0.422,1.001-0.635,1.673-0.635c0.246,0,0.484,0.029,0.715,0.09
	c0.176,0.045,0.389,0.127,0.639,0.248s0.428,0.182,0.527,0.182c0.096,0,0.172-0.03,0.229-0.09c0.055-0.061,0.107-0.203,0.156-0.43
	H152.684z"/>
<path fill="#0054A0" d="M156.143,24.5v3.08h0.15c0.48,0,0.828-0.151,1.043-0.451c0.217-0.303,0.355-0.746,0.414-1.334h0.211v3.961
	h-0.211c-0.045-0.432-0.139-0.785-0.281-1.061c-0.145-0.275-0.311-0.459-0.5-0.555s-0.465-0.143-0.826-0.143v2.131
	c0,0.416,0.018,0.672,0.053,0.765s0.102,0.169,0.199,0.229c0.096,0.059,0.254,0.088,0.469,0.088h0.451
	c0.707,0,1.273-0.163,1.699-0.49s0.73-0.825,0.918-1.495h0.205l-0.34,2.403h-6.537v-0.205h0.25c0.221,0,0.396-0.039,0.529-0.117
	c0.098-0.053,0.172-0.141,0.225-0.268c0.041-0.09,0.061-0.324,0.061-0.703v-4.977c0-0.342-0.01-0.552-0.027-0.63
	c-0.037-0.131-0.105-0.231-0.207-0.301c-0.141-0.104-0.336-0.156-0.58-0.156h-0.25v-0.207h6.332v2.237h-0.215
	c-0.105-0.547-0.258-0.939-0.453-1.178c-0.195-0.237-0.471-0.412-0.828-0.524c-0.209-0.067-0.6-0.101-1.172-0.101H156.143z"/>
<path fill="#0054A0" d="M167.893,23.892v2.666h-0.205c-0.25-0.729-0.623-1.283-1.123-1.662c-0.498-0.379-1.043-0.568-1.635-0.568
	c-0.564,0-1.035,0.158-1.41,0.477c-0.377,0.318-0.643,0.762-0.799,1.33c-0.156,0.569-0.232,1.153-0.232,1.752
	c0,0.725,0.086,1.361,0.256,1.908c0.172,0.547,0.447,0.949,0.828,1.205c0.383,0.257,0.834,0.385,1.357,0.385
	c0.184,0,0.371-0.02,0.562-0.059s0.387-0.096,0.588-0.17v-1.573c0-0.298-0.02-0.489-0.062-0.578
	c-0.041-0.087-0.125-0.166-0.252-0.237c-0.129-0.069-0.285-0.105-0.467-0.105h-0.195v-0.206h3.678v0.206
	c-0.279,0.02-0.475,0.057-0.584,0.115c-0.109,0.057-0.195,0.152-0.254,0.287c-0.033,0.07-0.051,0.244-0.051,0.519v1.573
	c-0.482,0.215-0.986,0.378-1.508,0.488c-0.523,0.109-1.064,0.164-1.627,0.164c-0.717,0-1.312-0.098-1.787-0.293
	s-0.893-0.451-1.256-0.77s-0.646-0.676-0.85-1.074c-0.262-0.513-0.393-1.088-0.393-1.724c0-1.138,0.4-2.099,1.199-2.884
	c0.801-0.785,1.807-1.178,3.02-1.178c0.375,0,0.715,0.03,1.016,0.09c0.162,0.03,0.428,0.114,0.795,0.254
	c0.365,0.14,0.582,0.209,0.65,0.209c0.104,0,0.199-0.037,0.289-0.114c0.09-0.076,0.172-0.22,0.246-0.433H167.893z"/>
<path fill="#0054A0" d="M168.526,24.066h3.904v0.207h-0.195c-0.293,0-0.496,0.029-0.604,0.09c-0.111,0.062-0.189,0.146-0.234,0.254
	c-0.047,0.108-0.07,0.377-0.07,0.81v3.704c0,0.677,0.051,1.125,0.152,1.345c0.104,0.22,0.271,0.402,0.506,0.546
	c0.234,0.146,0.529,0.219,0.887,0.219c0.408,0,0.758-0.092,1.047-0.276c0.287-0.185,0.504-0.438,0.646-0.763
	c0.143-0.322,0.215-0.885,0.215-1.689v-3.085c0-0.339-0.035-0.58-0.105-0.726c-0.072-0.145-0.16-0.244-0.27-0.301
	c-0.166-0.086-0.402-0.127-0.707-0.127v-0.207h2.615v0.207h-0.156c-0.211,0-0.389,0.041-0.529,0.127
	c-0.143,0.086-0.244,0.215-0.307,0.385c-0.049,0.119-0.072,0.334-0.072,0.642v2.873c0,0.89-0.059,1.53-0.176,1.924
	s-0.402,0.759-0.857,1.088c-0.453,0.332-1.072,0.497-1.857,0.497c-0.652,0-1.16-0.087-1.518-0.262
	c-0.486-0.238-0.83-0.543-1.031-0.915s-0.301-0.872-0.301-1.501v-3.704c0-0.435-0.025-0.706-0.074-0.812
	c-0.047-0.106-0.131-0.19-0.25-0.254s-0.338-0.093-0.658-0.088V24.066z"/>
<path fill="#0054A0" d="M178.903,28.183v2.119c0,0.408,0.025,0.666,0.076,0.772c0.049,0.106,0.139,0.19,0.266,0.254
	s0.361,0.094,0.709,0.094v0.207h-3.873v-0.207c0.35,0,0.588-0.03,0.711-0.097c0.125-0.064,0.213-0.15,0.264-0.254
	c0.049-0.104,0.074-0.361,0.074-0.77v-4.91c0-0.408-0.025-0.666-0.074-0.772c-0.051-0.104-0.139-0.19-0.266-0.253
	c-0.127-0.064-0.363-0.096-0.709-0.096v-0.205h3.516c0.914,0,1.584,0.062,2.008,0.188c0.424,0.127,0.77,0.36,1.037,0.7
	c0.268,0.341,0.402,0.74,0.402,1.197c0,0.558-0.201,1.019-0.604,1.383c-0.256,0.23-0.615,0.404-1.076,0.52l1.818,2.561
	c0.238,0.33,0.408,0.537,0.508,0.619c0.152,0.115,0.33,0.179,0.531,0.188v0.207h-2.383l-2.438-3.446H178.903z M178.903,24.472v3.313
	h0.318c0.516,0,0.904-0.048,1.162-0.142c0.256-0.095,0.457-0.267,0.604-0.514c0.148-0.247,0.221-0.57,0.221-0.968
	c0-0.576-0.135-1.002-0.404-1.278c-0.27-0.275-0.705-0.412-1.303-0.412H178.903z"/>
<path fill="#0054A0" d="M187.893,23.959c1.205-0.045,2.184,0.306,2.936,1.054c0.754,0.748,1.131,1.684,1.131,2.807
	c0,0.959-0.281,1.804-0.842,2.533c-0.744,0.967-1.795,1.449-3.152,1.449c-1.361,0-2.414-0.461-3.158-1.384
	c-0.586-0.728-0.881-1.593-0.881-2.594c0-1.123,0.383-2.06,1.146-2.808C185.836,24.267,186.776,23.915,187.893,23.959
	 M187.959,24.316c-0.691,0-1.219,0.354-1.578,1.06c-0.295,0.58-0.441,1.414-0.441,2.5c0,1.29,0.227,2.245,0.68,2.862
	c0.316,0.431,0.76,0.646,1.328,0.646c0.383,0,0.703-0.092,0.961-0.278c0.326-0.237,0.58-0.619,0.764-1.141
	c0.182-0.523,0.273-1.203,0.273-2.045c0-1-0.094-1.749-0.279-2.245c-0.186-0.497-0.424-0.847-0.713-1.051
	C188.667,24.418,188.334,24.316,187.959,24.316"/>
<path fill="#0054A0" d="M197.094,23.892l0.061,2.522h-0.229c-0.107-0.633-0.373-1.142-0.795-1.526s-0.877-0.578-1.369-0.578
	c-0.379,0-0.68,0.102-0.9,0.305c-0.223,0.203-0.332,0.436-0.332,0.699c0,0.168,0.037,0.317,0.117,0.447
	c0.107,0.174,0.281,0.348,0.518,0.518c0.176,0.123,0.578,0.342,1.211,0.654c0.887,0.435,1.482,0.846,1.791,1.231
	c0.305,0.388,0.457,0.83,0.457,1.329c0,0.632-0.246,1.175-0.738,1.631s-1.119,0.684-1.877,0.684c-0.238,0-0.463-0.024-0.676-0.072
	c-0.211-0.049-0.479-0.139-0.797-0.273c-0.18-0.074-0.326-0.111-0.441-0.111c-0.098,0-0.199,0.037-0.307,0.111
	s-0.195,0.188-0.264,0.34h-0.205v-2.855h0.205c0.166,0.803,0.48,1.416,0.947,1.838s0.969,0.633,1.508,0.633
	c0.416,0,0.748-0.113,0.996-0.34s0.371-0.491,0.371-0.792c0-0.179-0.047-0.353-0.143-0.519c-0.096-0.168-0.238-0.328-0.432-0.478
	c-0.193-0.151-0.535-0.347-1.027-0.589c-0.688-0.338-1.182-0.627-1.482-0.864c-0.303-0.237-0.533-0.504-0.695-0.798
	s-0.242-0.617-0.242-0.971c0-0.603,0.221-1.116,0.662-1.541c0.443-0.422,1.002-0.635,1.674-0.635c0.246,0,0.484,0.029,0.715,0.09
	c0.176,0.045,0.389,0.127,0.639,0.248c0.252,0.121,0.428,0.182,0.527,0.182c0.098,0,0.174-0.03,0.229-0.09
	c0.055-0.061,0.109-0.203,0.156-0.43H197.094z"/>
<path fill="#0054A0" d="M205.024,23.892l0.062,2.522h-0.23c-0.107-0.633-0.373-1.142-0.795-1.526s-0.877-0.578-1.369-0.578
	c-0.379,0-0.68,0.102-0.9,0.305s-0.332,0.436-0.332,0.699c0,0.168,0.039,0.317,0.117,0.447c0.107,0.174,0.281,0.348,0.52,0.518
	c0.174,0.123,0.578,0.342,1.209,0.654c0.885,0.435,1.482,0.846,1.791,1.231c0.305,0.388,0.459,0.83,0.459,1.329
	c0,0.632-0.248,1.175-0.74,1.631s-1.117,0.684-1.877,0.684c-0.238,0-0.463-0.024-0.676-0.072c-0.211-0.049-0.477-0.139-0.797-0.273
	c-0.178-0.074-0.326-0.111-0.441-0.111c-0.096,0-0.199,0.037-0.307,0.111s-0.195,0.188-0.262,0.34h-0.207v-2.855h0.207
	c0.164,0.803,0.479,1.416,0.945,1.838s0.971,0.633,1.51,0.633c0.416,0,0.748-0.113,0.994-0.34c0.248-0.227,0.371-0.491,0.371-0.792
	c0-0.179-0.047-0.353-0.143-0.519c-0.094-0.168-0.238-0.328-0.432-0.478c-0.193-0.151-0.535-0.347-1.025-0.589
	c-0.689-0.338-1.184-0.627-1.484-0.864s-0.533-0.504-0.695-0.798s-0.242-0.617-0.242-0.971c0-0.603,0.221-1.116,0.664-1.541
	c0.441-0.422,1-0.635,1.674-0.635c0.244,0,0.484,0.029,0.713,0.09c0.174,0.045,0.389,0.127,0.641,0.248
	c0.25,0.121,0.426,0.182,0.525,0.182c0.098,0,0.174-0.03,0.23-0.09c0.055-0.061,0.105-0.203,0.154-0.43H205.024z"/>
<path fill="#0054A0" d="M206.489,30.285c0.203,0,0.377,0.071,0.518,0.215c0.141,0.142,0.211,0.313,0.211,0.515
	s-0.07,0.372-0.213,0.513s-0.314,0.213-0.516,0.213s-0.371-0.072-0.514-0.213c-0.141-0.141-0.211-0.312-0.211-0.513
	s0.07-0.373,0.211-0.515C206.118,30.356,206.288,30.285,206.489,30.285"/>
<path fill="#0054A0" d="M211.858,29.476h-2.672l-0.316,0.736c-0.105,0.246-0.156,0.448-0.156,0.608c0,0.212,0.084,0.368,0.256,0.469
	c0.1,0.06,0.348,0.104,0.742,0.134v0.206h-2.518v-0.206c0.273-0.041,0.496-0.154,0.67-0.338c0.176-0.184,0.393-0.564,0.648-1.141
	l2.705-6.036h0.105l2.729,6.204c0.26,0.588,0.475,0.957,0.641,1.109c0.127,0.115,0.307,0.183,0.535,0.201v0.206h-3.658v-0.206h0.15
	c0.293,0,0.5-0.041,0.619-0.123c0.082-0.06,0.123-0.145,0.123-0.257c0-0.067-0.01-0.136-0.033-0.206
	c-0.008-0.033-0.064-0.173-0.168-0.419L211.858,29.476z M211.67,29.064l-1.127-2.605l-1.162,2.605H211.67z"/>
<path fill="#0054A0" d="M215.834,30.285c0.203,0,0.375,0.071,0.518,0.215c0.141,0.142,0.211,0.313,0.211,0.515
	s-0.07,0.372-0.213,0.513s-0.314,0.213-0.516,0.213s-0.373-0.072-0.514-0.213s-0.211-0.312-0.211-0.513s0.07-0.373,0.211-0.515
	C215.461,30.356,215.633,30.285,215.834,30.285"/>
<path fill="#0054A0" d="M61.934,9.705v3.85h0.271c0.415,0,0.753-0.062,1.015-0.186c0.264-0.125,0.486-0.334,0.668-0.63
	c0.182-0.294,0.301-0.693,0.355-1.196h0.242v4.708h-0.242c-0.088-0.889-0.325-1.476-0.715-1.759
	c-0.389-0.283-0.83-0.426-1.323-0.426h-0.271v2.869c0,0.48,0.027,0.779,0.08,0.899s0.156,0.225,0.311,0.315
	c0.154,0.089,0.363,0.134,0.626,0.134h0.312v0.256h-4.902v-0.256h0.312c0.272,0,0.491-0.048,0.657-0.145
	c0.12-0.064,0.212-0.175,0.277-0.331c0.049-0.111,0.074-0.402,0.074-0.872v-6.166c0-0.479-0.025-0.778-0.074-0.898
	c-0.051-0.12-0.154-0.225-0.309-0.315c-0.154-0.09-0.363-0.135-0.626-0.135h-0.312V9.166h7.908v2.688h-0.283
	c-0.064-0.631-0.229-1.098-0.493-1.402c-0.267-0.304-0.649-0.519-1.151-0.643c-0.277-0.07-0.789-0.104-1.535-0.104H61.934z"/>
<path fill="#0054A0" d="M69.484,9.705v3.816h0.188c0.594,0,1.025-0.187,1.292-0.561c0.269-0.373,0.438-0.923,0.513-1.651h0.262
	v4.907h-0.262c-0.056-0.534-0.173-0.972-0.35-1.313c-0.178-0.341-0.384-0.57-0.619-0.688c-0.234-0.117-0.576-0.176-1.023-0.176
	v2.641c0,0.516,0.022,0.832,0.066,0.947c0.044,0.115,0.125,0.21,0.245,0.283c0.12,0.074,0.313,0.11,0.581,0.11h0.561
	c0.875,0,1.576-0.202,2.104-0.608c0.526-0.405,0.905-1.023,1.137-1.852h0.255l-0.421,2.979h-8.102v-0.256h0.311
	c0.272,0,0.491-0.048,0.657-0.145c0.12-0.064,0.212-0.175,0.277-0.331c0.05-0.111,0.076-0.402,0.076-0.872v-6.166
	c0-0.424-0.013-0.684-0.035-0.781c-0.047-0.161-0.131-0.285-0.256-0.373c-0.176-0.129-0.416-0.194-0.72-0.194h-0.311V9.166h7.846
	v2.772h-0.263c-0.133-0.678-0.321-1.164-0.562-1.459c-0.242-0.295-0.585-0.511-1.027-0.65c-0.258-0.083-0.742-0.124-1.451-0.124
	H69.484z"/>
<path fill="#0054A0" d="M74.195,18.539v-0.256h0.311c0.272,0,0.481-0.042,0.627-0.127c0.145-0.085,0.252-0.202,0.32-0.349
	c0.042-0.097,0.062-0.387,0.062-0.871V10.77c0-0.48-0.025-0.779-0.075-0.899c-0.052-0.12-0.154-0.224-0.308-0.315
	c-0.156-0.089-0.363-0.135-0.627-0.135h-0.311V9.166h4.195c1.121,0,2.021,0.152,2.703,0.456c0.834,0.373,1.467,0.938,1.898,1.694
	c0.43,0.756,0.646,1.61,0.646,2.564c0,0.659-0.107,1.266-0.318,1.822c-0.213,0.555-0.487,1.014-0.823,1.375
	c-0.336,0.362-0.724,0.652-1.164,0.871s-0.979,0.388-1.614,0.508c-0.281,0.056-0.724,0.083-1.328,0.083H74.195z M77.77,9.698v7.314
	c0,0.387,0.019,0.624,0.055,0.712c0.037,0.087,0.1,0.154,0.188,0.2c0.123,0.069,0.304,0.104,0.539,0.104
	c0.769,0,1.356-0.263,1.762-0.788c0.554-0.71,0.83-1.811,0.83-3.304c0-1.203-0.189-2.164-0.567-2.883
	c-0.299-0.562-0.685-0.945-1.153-1.147C79.09,9.763,78.538,9.694,77.77,9.698"/>
<path fill="#0054A0" d="M87.027,9.705v3.816h0.187c0.595,0,1.026-0.187,1.293-0.561c0.267-0.373,0.438-0.923,0.512-1.651h0.263
	v4.907h-0.263c-0.056-0.534-0.172-0.972-0.349-1.313c-0.178-0.341-0.385-0.57-0.619-0.688c-0.234-0.117-0.576-0.176-1.023-0.176
	v2.641c0,0.516,0.022,0.832,0.066,0.947c0.043,0.115,0.125,0.21,0.245,0.283c0.12,0.074,0.313,0.11,0.581,0.11h0.559
	c0.876,0,1.577-0.202,2.105-0.608c0.527-0.405,0.906-1.023,1.137-1.852h0.256l-0.422,2.979h-8.102v-0.256h0.312
	c0.272,0,0.491-0.048,0.657-0.145c0.119-0.064,0.212-0.175,0.275-0.331c0.051-0.111,0.076-0.402,0.076-0.872v-6.166
	c0-0.424-0.011-0.684-0.033-0.781c-0.047-0.161-0.133-0.285-0.256-0.373c-0.176-0.129-0.416-0.194-0.72-0.194h-0.312V9.166H91.3
	v2.772h-0.263c-0.135-0.678-0.321-1.164-0.563-1.459c-0.241-0.295-0.584-0.511-1.026-0.65c-0.259-0.083-0.742-0.124-1.451-0.124
	H87.027z"/>
<path fill="#0054A0" d="M95.312,14.267v2.627c0,0.507,0.031,0.826,0.095,0.957c0.062,0.131,0.17,0.236,0.327,0.315
	c0.156,0.078,0.449,0.117,0.878,0.117v0.256h-4.797v-0.256c0.434,0,0.727-0.04,0.881-0.12c0.154-0.081,0.262-0.186,0.325-0.315
	c0.062-0.129,0.093-0.447,0.093-0.954v-6.083c0-0.507-0.031-0.826-0.093-0.958c-0.063-0.131-0.172-0.236-0.329-0.314
	c-0.156-0.079-0.449-0.118-0.877-0.118V9.165h4.354c1.135,0,1.963,0.079,2.49,0.236c0.524,0.156,0.953,0.446,1.285,0.867
	c0.331,0.422,0.497,0.916,0.497,1.483c0,0.691-0.248,1.263-0.746,1.714c-0.317,0.286-0.763,0.5-1.335,0.643l2.254,3.173
	c0.295,0.41,0.506,0.666,0.629,0.767c0.189,0.143,0.408,0.221,0.656,0.235v0.256h-2.951l-3.021-4.272H95.312z M95.312,9.67v4.106
	h0.394c0.642,0,1.121-0.059,1.438-0.176c0.317-0.118,0.567-0.329,0.75-0.636c0.183-0.306,0.272-0.706,0.272-1.199
	c0-0.714-0.166-1.242-0.5-1.583C97.33,9.841,96.793,9.67,96.052,9.67H95.312z"/>
<path fill="#0054A0" d="M106.602,15.871h-3.311l-0.394,0.912c-0.13,0.304-0.193,0.556-0.193,0.754c0,0.262,0.104,0.456,0.317,0.58
	c0.125,0.074,0.431,0.129,0.92,0.166v0.256h-3.118v-0.256c0.337-0.05,0.612-0.19,0.83-0.418c0.216-0.228,0.483-0.7,0.802-1.414
	l3.352-7.479h0.133l3.38,7.686c0.321,0.729,0.587,1.187,0.795,1.376c0.157,0.143,0.378,0.226,0.664,0.249v0.256h-4.535v-0.256h0.187
	c0.363,0,0.619-0.05,0.768-0.152c0.102-0.073,0.152-0.18,0.152-0.318c0-0.083-0.014-0.168-0.043-0.256
	c-0.008-0.041-0.078-0.214-0.207-0.518L106.602,15.871z M106.367,15.359l-1.396-3.228l-1.438,3.228H106.367z"/>
<path fill="#0054A0" d="M119.324,8.951V12.2h-0.27c-0.202-0.848-0.58-1.497-1.133-1.95c-0.553-0.451-1.181-0.677-1.881-0.677
	c-0.586,0-1.123,0.169-1.61,0.505c-0.489,0.337-0.847,0.777-1.072,1.32c-0.29,0.696-0.435,1.471-0.435,2.323
	c0,0.839,0.105,1.603,0.317,2.291c0.212,0.689,0.543,1.21,0.996,1.562c0.451,0.353,1.036,0.529,1.755,0.529
	c0.59,0,1.131-0.128,1.621-0.387c0.491-0.257,1.008-0.702,1.553-1.334v0.809c-0.526,0.548-1.074,0.946-1.643,1.192
	c-0.568,0.247-1.234,0.37-1.994,0.37c-1,0-1.888-0.2-2.665-0.601c-0.776-0.401-1.376-0.977-1.797-1.728
	c-0.422-0.752-0.633-1.551-0.633-2.399c0-0.894,0.233-1.742,0.702-2.544c0.467-0.802,1.099-1.424,1.894-1.866
	c0.795-0.443,1.64-0.664,2.534-0.664c0.658,0,1.354,0.143,2.087,0.429c0.424,0.166,0.692,0.249,0.81,0.249
	c0.146,0,0.274-0.055,0.383-0.163c0.107-0.108,0.179-0.28,0.211-0.515H119.324z"/>
<path fill="#0054A0" d="M124.221,18.283v0.256h-4.9v-0.256h0.311c0.272,0,0.491-0.048,0.657-0.145
	c0.119-0.065,0.212-0.175,0.276-0.332c0.051-0.11,0.076-0.401,0.076-0.871v-6.166c0-0.479-0.025-0.779-0.076-0.898
	c-0.051-0.12-0.153-0.225-0.307-0.315c-0.155-0.09-0.363-0.135-0.627-0.135h-0.311V9.165h4.9v0.256h-0.311
	c-0.271,0-0.49,0.049-0.656,0.146c-0.119,0.064-0.215,0.175-0.283,0.331c-0.051,0.111-0.076,0.401-0.076,0.871v6.166
	c0,0.479,0.025,0.779,0.078,0.899c0.054,0.12,0.158,0.225,0.312,0.314c0.155,0.09,0.363,0.135,0.626,0.135H124.221z"/>
<path fill="#0054A0" d="M128.952,9.034c1.493-0.055,2.706,0.381,3.64,1.307c0.934,0.926,1.398,2.086,1.398,3.477
	c0,1.189-0.348,2.235-1.043,3.139c-0.922,1.198-2.223,1.797-3.905,1.797c-1.687,0-2.991-0.572-3.912-1.714
	c-0.729-0.904-1.093-1.975-1.093-3.215c0-1.391,0.474-2.552,1.421-3.48C126.404,9.416,127.57,8.979,128.952,9.034 M129.035,9.477
	c-0.857,0-1.51,0.438-1.956,1.314c-0.364,0.718-0.546,1.751-0.546,3.096c0,1.6,0.281,2.781,0.843,3.546
	c0.392,0.535,0.94,0.802,1.646,0.802c0.475,0,0.871-0.115,1.188-0.345c0.405-0.295,0.722-0.767,0.946-1.414
	c0.227-0.647,0.34-1.492,0.34-2.533c0-1.24-0.116-2.167-0.346-2.783c-0.23-0.615-0.524-1.049-0.881-1.303
	C129.911,9.604,129.5,9.477,129.035,9.477"/>
<path fill="#0054A0" d="M136.959,9.166l4.625,5.813V10.95c0-0.562-0.08-0.943-0.242-1.141c-0.221-0.267-0.592-0.396-1.112-0.387
	V9.166h3.097v0.256c-0.396,0.051-0.662,0.116-0.799,0.197c-0.136,0.081-0.242,0.212-0.318,0.394s-0.113,0.494-0.113,0.937v7.804
	h-0.235l-6.339-7.804v5.958c0,0.539,0.123,0.903,0.37,1.092s0.528,0.284,0.847,0.284h0.221v0.256h-3.324v-0.256
	c0.516-0.005,0.875-0.111,1.078-0.319c0.203-0.206,0.305-0.559,0.305-1.057v-6.615l-0.201-0.249
	c-0.197-0.249-0.373-0.412-0.525-0.491c-0.151-0.078-0.371-0.122-0.656-0.131V9.166H136.959z"/>
<path fill="#0054A0" d="M151.374,14.295v2.599c0,0.507,0.031,0.826,0.094,0.957c0.062,0.132,0.172,0.236,0.332,0.315
	c0.158,0.078,0.449,0.117,0.875,0.117v0.256h-4.764v-0.256c0.434,0,0.727-0.04,0.882-0.12c0.154-0.081,0.263-0.186,0.324-0.315
	c0.062-0.129,0.094-0.447,0.094-0.954v-6.083c0-0.507-0.032-0.826-0.094-0.958c-0.062-0.131-0.171-0.236-0.328-0.314
	c-0.157-0.079-0.448-0.118-0.878-0.118V9.166h4.084c1.348,0,2.312,0.239,2.898,0.718c0.584,0.48,0.877,1.079,0.877,1.798
	c0,0.608-0.189,1.129-0.566,1.562c-0.379,0.433-0.898,0.728-1.562,0.885C153.194,14.24,152.438,14.295,151.374,14.295
	 M151.374,9.705v4.051c0.152,0.009,0.268,0.014,0.346,0.014c0.562,0,0.996-0.167,1.301-0.501c0.303-0.335,0.455-0.852,0.455-1.553
	c0-0.695-0.152-1.205-0.455-1.527c-0.305-0.323-0.76-0.484-1.363-0.484H151.374z"/>
<path fill="#0054A0" d="M159.975,15.871h-3.311l-0.395,0.912c-0.129,0.304-0.193,0.556-0.193,0.754c0,0.262,0.105,0.456,0.318,0.58
	c0.123,0.074,0.432,0.129,0.92,0.166v0.256h-3.117v-0.256c0.336-0.05,0.611-0.19,0.828-0.418s0.484-0.7,0.803-1.414l3.352-7.479
	h0.131l3.381,7.686c0.322,0.729,0.588,1.187,0.795,1.376c0.156,0.143,0.379,0.226,0.664,0.249v0.256h-4.535v-0.256h0.188
	c0.363,0,0.619-0.05,0.768-0.152c0.102-0.073,0.15-0.18,0.15-0.318c0-0.083-0.014-0.168-0.041-0.256
	c-0.008-0.041-0.078-0.214-0.207-0.518L159.975,15.871z M159.741,15.359l-1.396-3.228l-1.438,3.228H159.741z"/>
<path fill="#0054A0" d="M171.129,9.166v2.537h-0.25c-0.146-0.585-0.311-1.006-0.49-1.262c-0.18-0.255-0.426-0.459-0.74-0.611
	c-0.176-0.083-0.48-0.125-0.92-0.125h-0.697v7.231c0,0.479,0.025,0.779,0.08,0.898c0.053,0.12,0.156,0.225,0.311,0.315
	c0.154,0.09,0.365,0.135,0.633,0.135h0.311v0.256h-4.908v-0.256h0.311c0.273,0,0.492-0.049,0.658-0.145
	c0.119-0.065,0.213-0.175,0.283-0.332c0.051-0.111,0.076-0.401,0.076-0.871V9.705h-0.678c-0.631,0-1.09,0.134-1.377,0.401
	c-0.398,0.374-0.652,0.906-0.76,1.597h-0.262V9.166H171.129z"/>
<path fill="#0054A0" d="M174.338,14.267v2.627c0,0.507,0.031,0.826,0.094,0.957s0.172,0.236,0.328,0.315
	c0.156,0.078,0.449,0.117,0.879,0.117v0.256h-4.799v-0.256c0.434,0,0.729-0.04,0.881-0.12c0.156-0.081,0.266-0.186,0.326-0.315
	c0.062-0.129,0.094-0.447,0.094-0.954v-6.083c0-0.507-0.031-0.826-0.094-0.958c-0.061-0.131-0.172-0.236-0.328-0.314
	c-0.156-0.079-0.449-0.118-0.879-0.118V9.165h4.355c1.135,0,1.963,0.079,2.49,0.236c0.523,0.156,0.953,0.446,1.285,0.867
	c0.33,0.422,0.498,0.916,0.498,1.483c0,0.691-0.25,1.263-0.748,1.714c-0.316,0.286-0.762,0.5-1.334,0.643l2.254,3.173
	c0.295,0.41,0.504,0.666,0.629,0.767c0.189,0.143,0.408,0.221,0.656,0.235v0.256h-2.951l-3.021-4.272H174.338z M174.338,9.67v4.106
	h0.395c0.641,0,1.121-0.059,1.438-0.176c0.318-0.118,0.568-0.329,0.75-0.636c0.184-0.306,0.273-0.706,0.273-1.199
	c0-0.714-0.166-1.242-0.502-1.583c-0.334-0.341-0.871-0.512-1.613-0.512H174.338z"/>
<path fill="#0054A0" d="M185.208,9.034c1.494-0.055,2.707,0.381,3.641,1.307c0.934,0.926,1.398,2.086,1.398,3.477
	c0,1.189-0.346,2.235-1.043,3.139c-0.922,1.198-2.223,1.797-3.906,1.797c-1.686,0-2.99-0.572-3.91-1.714
	c-0.73-0.904-1.094-1.975-1.094-3.215c0-1.391,0.475-2.552,1.42-3.48C182.661,9.416,183.827,8.979,185.208,9.034 M185.292,9.477
	c-0.857,0-1.51,0.438-1.957,1.314c-0.363,0.718-0.545,1.751-0.545,3.096c0,1.6,0.281,2.781,0.842,3.546
	c0.393,0.535,0.941,0.802,1.646,0.802c0.475,0,0.871-0.115,1.188-0.345c0.406-0.295,0.723-0.767,0.947-1.414
	c0.227-0.647,0.34-1.492,0.34-2.533c0-1.24-0.115-2.167-0.346-2.783c-0.23-0.615-0.525-1.049-0.883-1.303
	C186.168,9.604,185.756,9.477,185.292,9.477"/>
<path fill="#0054A0" d="M193.215,9.166l4.625,5.813V10.95c0-0.562-0.082-0.943-0.242-1.141c-0.221-0.267-0.592-0.396-1.113-0.387
	V9.166h3.098v0.256c-0.396,0.051-0.662,0.116-0.799,0.197s-0.242,0.212-0.318,0.394s-0.113,0.494-0.113,0.937v7.804h-0.234
	l-6.34-7.804v5.958c0,0.539,0.123,0.903,0.369,1.092s0.529,0.284,0.848,0.284h0.221v0.256h-3.324v-0.256
	c0.516-0.005,0.875-0.111,1.078-0.319c0.203-0.206,0.303-0.559,0.303-1.057v-6.615l-0.199-0.249
	c-0.197-0.249-0.373-0.412-0.525-0.491c-0.152-0.078-0.371-0.122-0.656-0.131V9.166H193.215z"/>
<path fill="#0054A0" d="M204.743,15.871h-3.312l-0.393,0.912c-0.129,0.304-0.193,0.556-0.193,0.754c0,0.262,0.105,0.456,0.318,0.58
	c0.123,0.074,0.43,0.129,0.918,0.166v0.256h-3.117v-0.256c0.336-0.05,0.613-0.19,0.83-0.418c0.215-0.228,0.482-0.7,0.801-1.414
	l3.354-7.479h0.131l3.381,7.686c0.322,0.729,0.586,1.187,0.795,1.376c0.156,0.143,0.377,0.226,0.662,0.249v0.256h-4.533v-0.256
	h0.188c0.361,0,0.617-0.05,0.766-0.152c0.102-0.073,0.152-0.18,0.152-0.318c0-0.083-0.014-0.168-0.041-0.256
	c-0.01-0.041-0.078-0.214-0.207-0.518L204.743,15.871z M204.506,15.359l-1.396-3.228l-1.438,3.228H204.506z"/>
<path fill="#0054A0" d="M216.952,15.249l-0.354,3.291h-8.32v-0.256h0.311c0.271,0,0.49-0.049,0.656-0.145
	c0.119-0.065,0.211-0.175,0.277-0.332c0.051-0.111,0.074-0.401,0.074-0.871V10.77c0-0.48-0.023-0.779-0.074-0.899
	c-0.053-0.12-0.154-0.224-0.309-0.314c-0.154-0.09-0.363-0.135-0.625-0.135h-0.311V9.166h4.998v0.256h-0.408
	c-0.273,0-0.492,0.048-0.658,0.145c-0.119,0.065-0.213,0.175-0.283,0.332c-0.051,0.111-0.076,0.401-0.076,0.871v5.972
	c0,0.479,0.027,0.785,0.084,0.916c0.055,0.131,0.162,0.229,0.324,0.294c0.115,0.041,0.395,0.062,0.836,0.062h0.781
	c0.498,0,0.914-0.087,1.246-0.262c0.33-0.175,0.617-0.452,0.859-0.83s0.471-0.936,0.688-1.673H216.952z"/>
<g>
</g>
<g>
</g>
<g>
</g>
<g>
</g>
<g>
</g>
<g>
</g>
</svg>
